<?xml version="1.0" encoding="utf-8"?>
<!DOCTYPE svg PUBLIC "-//W3C//DTD SVG 1.1//EN" "http://www.w3.org/Graphics/SVG/1.1/DTD/svg11.dtd">
<svg xmlns="http://www.w3.org/2000/svg" xmlns:xlink="http://www.w3.org/1999/xlink" version="1.1" baseProfile="full" width="590.667" height="160" viewBox="0 0 590.67 160.00" enable-background="new 0 0 590.67 160.00" xml:space="preserve">
	<g>
		<path fill="#FF7979" fill-opacity="1" stroke-linejoin="round" d="M 53.0417,60.5301C 53.0417,60.9839 52.63,61.2901 51.8067,61.4484C 51.2261,61.554 50.4133,61.5698 49.3683,61.4959C 47.9011,61.4009 47.2783,61.3535 47.5,61.3535C 46.2333,61.3535 45.6,62.0131 45.6,63.3326C 45.6,64.1559 45.7689,65.3882 46.1067,67.0297C 46.4444,68.6711 46.6133,69.8981 46.6133,70.7109C 46.6133,71.9037 46.1067,72.5001 45.0933,72.5001C 33.7778,72.5001 27.8244,72.3576 27.2333,72.0726C 26.6422,71.7876 26.3467,71.4287 26.3467,70.9959C 26.3467,70.4998 26.3467,69.2674 26.3467,67.2988C 26.3467,65.3303 26.3467,63.8973 26.3467,63.0001C 26.3467,61.9023 25.7239,61.3535 24.4783,61.3535C 22.2089,61.3535 18.8206,61.3535 14.3133,61.3535C 9.80611,61.3535 6.41778,61.3535 4.14833,61.3535C 1.44611,61.3535 0.0949999,60.2979 0.0949999,58.1868C 0.0949999,57.1206 0.0791664,55.5241 0.0474993,53.3972C 0.0158323,51.2702 -1.27157e-006,49.6736 -1.27157e-006,48.6076C -1.27157e-006,47.6048 0.670277,46.5493 2.01083,45.4409C 7.00361,40.2476 10.6453,36.0887 12.9358,32.9643C 14.0336,31.4653 17.7439,25.6282 24.0667,15.4526C 24.89,13.9221 26.2253,11.8267 28.0725,9.16675C 28.5475,8.59674 29.0594,8.31177 29.6083,8.31177C 30.3894,8.31177 32.7961,9.04535 36.8283,10.5126C 40.8606,11.9798 43.605,12.7134 45.0617,12.7134C 46.0961,12.7134 46.6133,13.4101 46.6133,14.8034C 46.6133,16.1229 46.4444,18.1126 46.1067,20.7726C 45.7689,23.4326 45.6,25.4382 45.6,26.7892L 45.6,48.1801C 46.2228,48.1801 47.2994,48.0798 48.83,47.8792C 50.2022,47.6893 51.2631,47.5942 52.0125,47.5942C 52.6247,47.5942 52.9308,47.9584 52.9308,48.6868C 52.9308,49.3306 52.8912,50.2939 52.8121,51.5764C 52.7329,52.8588 52.6933,53.8379 52.6933,54.5134C 52.6933,55.189 52.7514,56.1917 52.8675,57.5217C 52.9836,58.8517 53.0417,59.8545 53.0417,60.5301 Z M 28.3733,29.5759C 28.3733,29.3753 28.2572,29.2751 28.025,29.2751C 27.7189,29.2751 27.4128,29.4968 27.1067,29.9401C 24.9533,33.4445 22.7947,36.949 20.6308,40.4534C 18.0342,44.5068 15.5061,47.7579 13.0467,50.2068C 14.9256,50.2068 19.6967,49.869 27.36,49.1934C 27.4233,47.8528 27.6292,44.549 27.9775,39.2817C 28.2414,35.1229 28.3733,31.8876 28.3733,29.5759 Z "/>
		<path fill="#FF7979" fill-opacity="1" stroke-linejoin="round" d="M 117.547,42.5117C 117.547,50.9034 114.755,58.1129 109.171,64.1401C 103.386,70.389 96.2139,73.5134 87.6533,73.5134C 79.0928,73.5134 71.9361,70.389 66.1833,64.1401C 60.5678,58.1129 57.76,50.9034 57.76,42.5117C 57.76,34.0779 60.5678,26.8843 66.1833,20.9309C 71.9361,14.777 79.0928,11.7001 87.6533,11.7001C 96.2139,11.7001 103.371,14.777 109.123,20.9309C 114.739,26.916 117.547,34.1096 117.547,42.5117 Z M 99.3066,42.5117C 99.3066,39.1868 98.2722,36.2998 96.2033,33.8509C 93.9867,31.2437 91.1367,29.9401 87.6533,29.9401C 84.0961,29.9401 81.2303,31.2278 79.0558,33.8034C 77.0186,36.189 76,39.0917 76,42.5117C 76,45.8578 77.0186,48.7764 79.0558,51.2676C 81.2619,53.9382 84.1278,55.2734 87.6533,55.2734C 91.0417,55.2734 93.8705,53.9012 96.14,51.1567C 98.2511,48.6445 99.3066,45.7629 99.3066,42.5117 Z "/>
		<path fill="#FF7979" fill-opacity="1" stroke-linejoin="round" d="M 172.615,60.5301C 172.615,60.9839 172.203,61.2901 171.38,61.4484C 170.799,61.554 169.987,61.5698 168.942,61.4959C 167.474,61.4009 166.852,61.3535 167.073,61.3535C 165.807,61.3535 165.173,62.0131 165.173,63.3326C 165.173,64.1559 165.342,65.3882 165.68,67.0297C 166.018,68.6711 166.187,69.8981 166.187,70.7109C 166.187,71.9037 165.68,72.5001 164.667,72.5001C 153.351,72.5001 147.398,72.3576 146.807,72.0726C 146.216,71.7876 145.92,71.4287 145.92,70.9959C 145.92,70.4998 145.92,69.2674 145.92,67.2988C 145.92,65.3303 145.92,63.8973 145.92,63.0001C 145.92,61.9023 145.297,61.3535 144.052,61.3535C 141.782,61.3535 138.394,61.3535 133.887,61.3535C 129.379,61.3535 125.991,61.3535 123.722,61.3535C 121.019,61.3535 119.668,60.2979 119.668,58.1868C 119.668,57.1206 119.652,55.5241 119.621,53.3972C 119.589,51.2702 119.573,49.6736 119.573,48.6076C 119.573,47.6048 120.244,46.5493 121.584,45.4409C 126.577,40.2476 130.219,36.0887 132.509,32.9643C 133.607,31.4653 137.317,25.6282 143.64,15.4526C 144.463,13.9221 145.799,11.8267 147.646,9.16675C 148.121,8.59674 148.633,8.31177 149.182,8.31177C 149.963,8.31177 152.369,9.04535 156.402,10.5126C 160.434,11.9798 163.178,12.7134 164.635,12.7134C 165.669,12.7134 166.187,13.4101 166.187,14.8034C 166.187,16.1229 166.018,18.1126 165.68,20.7726C 165.342,23.4326 165.173,25.4382 165.173,26.7892L 165.173,48.1801C 165.796,48.1801 166.873,48.0798 168.403,47.8792C 169.776,47.6893 170.836,47.5942 171.586,47.5942C 172.198,47.5942 172.504,47.9584 172.504,48.6868C 172.504,49.3306 172.465,50.2939 172.385,51.5764C 172.306,52.8588 172.267,53.8379 172.267,54.5134C 172.267,55.189 172.325,56.1917 172.441,57.5217C 172.557,58.8517 172.615,59.8545 172.615,60.5301 Z M 147.947,29.5759C 147.947,29.3753 147.831,29.2751 147.598,29.2751C 147.292,29.2751 146.986,29.4968 146.68,29.9401C 144.527,33.4445 142.368,36.949 140.204,40.4534C 137.607,44.5068 135.079,47.7579 132.62,50.2068C 134.499,50.2068 139.27,49.869 146.933,49.1934C 146.997,47.8528 147.202,44.549 147.551,39.2817C 147.815,35.1229 147.947,31.8876 147.947,29.5759 Z "/>
		<path fill="#000000" fill-opacity="1" stroke-linejoin="round" d="M 248.687,20.7051C 248.687,21.3151 248.347,21.6201 247.667,21.6201C 246.507,21.6201 241.907,21.3 233.867,20.6601C 233.867,28.6701 233.867,34.2551 233.867,37.4151C 233.867,41.1551 234.027,46.7751 234.347,54.2751C 234.667,61.7751 234.827,67.3901 234.827,71.1201C 234.827,71.72 234.682,72.1001 234.392,72.2601C 234.302,72.3301 233.857,72.4101 233.057,72.5001C 231.147,72.7501 228.347,72.8751 224.657,72.8751C 220.547,72.8751 217.662,72.7501 216.002,72.5001C 215.112,72.3401 214.667,71.845 214.667,71.0151C 214.667,67.2651 214.827,61.6401 215.147,54.1401C 215.467,46.6401 215.627,41.0101 215.627,37.2501C 215.627,34.7701 215.627,29.2401 215.627,20.6601C 209.127,21.3 203.947,21.6201 200.087,21.6201C 199.567,21.6201 199.307,21.47 199.307,21.1701C 199.307,20.7801 199.537,19.6201 199.997,17.6901C 200.517,15.5801 200.812,14.3 200.882,13.8501C 200.982,12.4301 201.097,11.0151 201.227,9.60504C 201.447,7.34503 201.822,6.21509 202.352,6.21509C 202.412,6.21509 202.627,6.23004 202.997,6.26007C 208.047,6.90009 215.507,7.22003 225.377,7.22003C 228.177,7.22003 233.347,7.01007 240.887,6.59009C 244.937,6.37012 246.977,6.26007 247.007,6.26007C 247.627,6.26007 247.984,6.29761 248.079,6.37256C 248.174,6.44757 248.237,6.74512 248.267,7.26508C 248.267,8.07513 248.237,9.21014 248.177,10.6701C 248.117,12.2701 248.087,13.4051 248.087,14.0751C 248.087,14.8351 248.187,15.9501 248.387,17.4201C 248.587,18.8901 248.687,19.9851 248.687,20.7051 Z "/>
		<path fill="#000000" fill-opacity="1" stroke-linejoin="round" d="M 298.187,38.0151L 298.097,70.835C 298.097,71.9451 297.667,72.5601 296.807,72.6801C 295.837,72.8101 293.607,72.8751 290.117,72.8751C 286.757,72.8751 284.422,72.7501 283.112,72.5001C 282.092,72.3101 281.582,71.6201 281.582,70.4301C 281.582,67.6701 281.629,63.5151 281.724,57.9651C 281.819,52.4151 281.867,48.2601 281.867,45.5001C 281.867,41.7401 279.907,39.8601 275.987,39.8601C 274.667,39.8601 273.117,40.3701 271.337,41.3901C 269.397,42.5001 268.427,43.6551 268.427,44.855L 268.427,56.6151C 268.427,58.1351 268.587,60.425 268.907,63.4851C 269.227,66.5451 269.387,68.835 269.387,70.355C 269.387,71.5351 268.862,72.1876 267.812,72.3126C 266.762,72.4376 263.817,72.5001 258.977,72.5001C 256.197,72.5001 254.197,72.3751 252.977,72.1251C 251.757,71.8751 251.147,71.3251 251.147,70.4751C 251.147,67.9951 251.307,64.2701 251.627,59.3C 251.947,54.3301 252.107,50.605 252.107,48.1251C 252.107,37.8751 252.032,29.3951 251.882,22.6851C 251.822,20.3251 251.767,17.97 251.717,15.6201C 251.617,12.8901 251.427,10.5551 251.147,8.61505C 251.057,8.20508 251.012,7.90509 251.012,7.71509C 251.012,7.24512 251.242,6.93011 251.702,6.77008C 252.662,6.49005 254.072,6.32007 255.932,6.26007C 258.402,6.19012 259.837,6.13013 260.237,6.08008C 265.837,5.56006 268.637,5.30011 268.637,5.30011C 269.137,5.30011 269.387,5.63013 269.387,6.2901C 269.387,7.2901 269.297,8.65009 269.117,10.3701C 268.927,12.3801 268.832,13.7451 268.832,14.4651C 268.562,21.5451 268.427,27.1351 268.427,31.2351C 268.427,31.8651 268.582,32.1801 268.892,32.1801C 268.962,32.1801 269.762,31.6001 271.292,30.4401C 273.122,29.0801 274.867,28.0001 276.527,27.2001C 279.007,26.0401 281.407,25.4601 283.727,25.4601C 287.747,25.4601 291.107,26.5201 293.807,28.6401C 296.727,30.9301 298.187,34.0551 298.187,38.0151 Z "/>
		<path fill="#000000" fill-opacity="1" stroke-linejoin="round" d="M 321.227,15.3801C 321.227,20.8201 318.212,23.5401 312.182,23.5401C 309.592,23.5401 307.452,22.8501 305.762,21.47C 303.912,19.97 302.987,17.9401 302.987,15.3801C 302.987,12.9401 303.942,10.9401 305.852,9.38007C 307.602,7.94012 309.712,7.22003 312.182,7.22003C 314.582,7.22003 316.657,7.95508 318.407,9.42505C 320.287,10.9851 321.227,12.97 321.227,15.3801 Z M 320.267,50.3151C 320.267,52.6451 320.427,56.105 320.747,60.6951C 321.067,65.2851 321.227,68.7251 321.227,71.0151C 321.227,71.6851 320.807,72.085 319.967,72.2151C 318.817,72.4051 316.237,72.5001 312.227,72.5001C 308.187,72.5001 305.597,72.4051 304.457,72.2151C 303.717,72.085 303.262,71.8801 303.092,71.6001C 303.022,71.47 302.987,70.9901 302.987,70.1601C 302.987,67.97 303.147,64.6726 303.467,60.2676C 303.787,55.8625 303.947,52.5451 303.947,50.3151C 303.947,41.2851 303.652,34.1001 303.062,28.7601C 303.012,28.2501 302.987,27.9151 302.987,27.7551C 302.987,27.1351 303.402,26.8251 304.232,26.8251C 305.082,26.8251 306.389,26.9175 308.154,27.1026C 309.919,27.2876 311.247,27.3801 312.137,27.3801C 313.017,27.3801 314.347,27.3026 316.127,27.1476C 317.907,26.9926 319.237,26.9151 320.117,26.9151C 320.857,26.9151 321.227,27.23 321.227,27.8601C 321.227,27.9901 321.202,28.2901 321.152,28.7601C 320.562,34.9601 320.267,42.1451 320.267,50.3151 Z "/>
		<path fill="#000000" fill-opacity="1" stroke-linejoin="round" d="M 354.827,35.0301C 354.827,35.3601 354.587,35.8 354.107,36.3501C 353.197,36.1301 352.292,36.0201 351.392,36.0201C 349.482,36.0201 347.882,36.3601 346.592,37.0401C 345.042,37.8301 344.267,38.9451 344.267,40.3851C 344.267,41.4651 345.097,42.8351 346.757,44.4951C 349.257,46.9951 350.797,48.675 351.377,49.5351C 353.037,51.8851 353.867,54.4001 353.867,57.0801C 353.867,58.6501 353.552,60.3151 352.922,62.0751C 352.202,64.0151 351.292,65.4351 350.192,66.335C 347.862,68.3051 345.142,69.97 342.032,71.3301C 338.672,72.7501 335.577,73.46 332.747,73.46C 332.107,73.46 330.667,71.6701 328.427,68.0901C 326.187,64.5101 325.067,62.3201 325.067,61.5201C 325.067,61.23 325.242,61.05 325.592,60.98C 327.832,60.6401 330.087,60.3 332.357,59.96C 335.177,59.23 336.587,58.0251 336.587,56.345C 336.587,54.9851 335.757,53.4101 334.097,51.6201C 331.147,48.5101 329.607,46.8601 329.477,46.6701C 327.817,44.4501 326.987,42.105 326.987,39.6351C 326.987,35.0051 329.402,31.0751 334.232,27.845C 338.552,24.9751 343.177,23.5401 348.107,23.5401C 348.607,23.5401 349.852,25.3076 351.842,28.8426C 353.832,32.3776 354.827,34.4401 354.827,35.0301 Z "/>
		<path fill="#000000" fill-opacity="1" stroke-linejoin="round" d="M 430.667,49.4901C 430.667,56.3101 428.667,61.97 424.667,66.47C 420.527,71.1301 415.107,73.46 408.407,73.46C 405.957,73.46 403.334,72.8201 400.539,71.5401C 397.744,70.2601 396.472,69.6201 396.722,69.6201C 396.312,69.6201 396.107,70.085 396.107,71.0151C 396.107,72.605 396.267,74.9951 396.587,78.1851C 396.907,81.3751 397.067,83.7651 397.067,85.355C 397.067,86.355 396.502,86.855 395.372,86.855L 384.917,86.9001C 382.567,86.9001 381.047,86.8201 380.357,86.6601C 379.337,86.4401 378.827,85.86 378.827,84.9201L 379.787,48.6201C 379.787,41.2901 379.182,35.1101 377.972,30.0801C 377.902,29.7701 377.867,29.5051 377.867,29.2851C 377.867,28.8151 378.052,28.5001 378.422,28.3401C 379.612,27.7501 381.892,27.1251 385.262,26.4651C 388.542,25.7951 390.917,25.4601 392.387,25.4601C 393.587,25.4601 394.279,26.2801 394.464,27.9201C 394.649,29.5601 394.877,30.3801 395.147,30.3801C 394.837,30.3801 396.224,29.5601 399.309,27.9201C 402.394,26.2801 405.197,25.4601 407.717,25.4601C 414.737,25.4601 420.347,27.7401 424.547,32.3C 428.627,36.7101 430.667,42.4401 430.667,49.4901 Z M 413.387,49.4901C 413.387,46.9601 412.622,44.7451 411.092,42.845C 409.262,40.855 407.067,39.8601 404.507,39.8601C 401.867,39.8601 399.757,40.855 398.177,42.845C 396.797,44.6451 396.107,46.8601 396.107,49.4901C 396.107,52.1701 396.832,54.3951 398.282,56.1651C 399.832,58.095 401.972,59.0601 404.702,59.0601C 410.492,59.0601 413.387,55.8701 413.387,49.4901 Z "/>
		<path fill="#000000" fill-opacity="1" stroke-linejoin="round" d="M 482.507,48.5001C 482.507,50.9601 482.667,54.6226 482.987,59.4875C 483.307,64.3526 483.467,68.0001 483.467,70.4301C 483.467,71.71 482.872,72.4001 481.682,72.5001C 477.452,72.7801 472.607,72.9201 467.147,72.9201C 466.557,72.9201 466.159,72.0576 465.954,70.3326C 465.749,68.6076 465.507,67.73 465.227,67.7001C 464.977,67.8201 464.642,68.0701 464.222,68.4501C 460.662,71.7901 456.852,73.46 452.792,73.46C 446.592,73.46 441.457,71.0351 437.387,66.1851C 433.547,61.6451 431.627,56.2251 431.627,49.925C 431.627,42.6551 433.637,36.8 437.657,32.3601C 441.837,27.7601 447.567,25.4601 454.847,25.4601C 459.737,25.4601 463.722,27.2951 466.802,30.9651C 466.932,31.1351 467.047,31.22 467.147,31.22C 467.387,31.22 467.659,30.2601 467.964,28.3401C 468.269,26.4201 468.637,25.4601 469.067,25.4601C 470.337,25.4601 472.762,25.8251 476.342,26.5551C 479.742,27.2551 482.177,27.8501 483.647,28.3401C 484.167,28.5301 484.427,28.7851 484.427,29.105C 484.427,29.2351 484.372,29.5701 484.262,30.1101C 483.092,35.9101 482.507,42.0401 482.507,48.5001 Z M 466.187,49.4301C 466.187,46.6701 465.297,44.3851 463.517,42.5751C 461.737,40.7651 459.417,39.8601 456.557,39.8601C 453.697,39.8601 451.367,40.7551 449.567,42.5451C 447.767,44.3351 446.907,46.6301 446.987,49.4301C 446.907,52.0701 447.817,54.3351 449.717,56.2251C 451.617,58.1151 453.897,59.0601 456.557,59.0601C 459.387,59.0601 461.699,58.1551 463.494,56.345C 465.289,54.5351 466.187,52.23 466.187,49.4301 Z "/>
		<path fill="#000000" fill-opacity="1" stroke-linejoin="round" d="M 534.437,59.2551C 534.437,68.3751 532.567,74.9201 528.827,78.8901C 524.957,82.9501 518.532,84.98 509.552,84.98C 506.932,84.98 503.362,84.5601 498.842,83.72C 493.072,82.6701 490.187,81.4351 490.187,80.0151C 490.187,79.425 490.822,76.3951 492.092,70.925C 492.302,70.0551 492.627,69.6201 493.067,69.6201C 493.227,69.6401 493.402,69.6901 493.592,69.7701C 498.472,71.5901 502.987,72.5001 507.137,72.5001C 509.417,72.5001 511.722,71.9001 514.052,70.7001C 516.702,69.2601 518.027,67.46 518.027,65.3L 518.027,61.9401C 514.797,65.1401 510.652,66.7401 505.592,66.7401C 499.652,66.7401 494.767,64.6851 490.937,60.5751C 487.237,56.605 485.387,51.7251 485.387,45.9351C 485.387,40.1151 487.152,35.2851 490.682,31.4451C 494.362,27.4551 499.177,25.4601 505.127,25.4601C 509.877,25.4601 513.512,27.0551 516.032,30.2451C 516.532,30.8951 516.877,31.22 517.067,31.22C 517.497,31.22 517.712,30.6251 517.712,29.4351C 517.712,26.7851 518.137,25.4601 518.987,25.4601C 519.477,25.4601 522.142,25.6101 526.982,25.9101C 531.822,26.2101 534.337,26.3801 534.527,26.4201C 535.047,26.6101 535.307,27.0251 535.307,27.6651C 535.307,29.8751 535.147,33.1726 534.827,37.5576C 534.507,41.9426 534.347,45.2401 534.347,47.4501C 534.347,48.7601 534.362,50.7276 534.392,53.3526C 534.422,55.9776 534.437,57.9451 534.437,59.2551 Z M 518.027,46.0701C 518.027,43.8701 517.297,41.9651 515.837,40.355C 514.377,38.7451 512.547,37.9401 510.347,37.9401C 508.147,37.9401 506.317,38.7626 504.857,40.4075C 503.397,42.0526 502.667,43.9751 502.667,46.175C 502.667,48.3751 503.412,50.2726 504.902,51.8676C 506.392,53.4626 508.207,54.2601 510.347,54.2601C 512.547,54.2601 514.377,53.4476 515.837,51.8226C 517.297,50.1976 518.027,48.2801 518.027,46.0701 Z "/>
		<path fill="#000000" fill-opacity="1" stroke-linejoin="round" d="M 582.347,47.855C 582.347,51.0451 581.347,52.8601 579.347,53.3C 579.007,53.3501 575.822,53.6151 569.792,54.095C 566.162,54.4151 560.747,54.7901 553.547,55.22C 553.967,57.1901 555.237,58.6851 557.357,59.7051C 559.087,60.5551 561.052,60.98 563.252,60.98C 565.912,60.98 568.582,60.3401 571.262,59.0601C 572.402,58.4201 573.537,57.7801 574.667,57.1401C 575.337,57.4301 576.464,58.9175 578.049,61.6026C 579.634,64.2876 580.427,65.9951 580.427,66.7251C 580.427,66.925 580.192,67.2601 579.722,67.73C 575.942,71.55 570.062,73.46 562.082,73.46C 554.702,73.46 548.747,71.3301 544.217,67.0701C 539.557,62.7601 537.227,56.9901 537.227,49.7601C 537.227,42.72 539.327,36.9451 543.527,32.4351C 547.847,27.7851 553.582,25.4601 560.732,25.4601C 566.742,25.4601 571.847,27.6701 576.047,32.0901C 580.247,36.5101 582.347,41.7651 582.347,47.855 Z M 565.067,44.0301C 565.067,42.4201 564.437,41.0026 563.177,39.7776C 561.917,38.5526 560.417,37.9401 558.677,37.9401C 556.877,37.9401 555.392,38.7251 554.222,40.2951C 553.132,41.7351 552.587,43.4301 552.587,45.3801C 552.587,46.1801 552.987,46.5801 553.787,46.5801C 555.907,46.5801 559.197,45.9401 563.657,44.6601C 564.597,44.5301 565.067,44.3201 565.067,44.0301 Z "/>
		<path fill="#000000" fill-opacity="1" stroke-linejoin="round" d="M 95.04,116.54C 95.04,119 95.2,122.663 95.52,127.528C 95.84,132.393 96,136.04 96,138.47C 96,139.75 95.405,140.44 94.215,140.54C 89.985,140.82 85.14,140.96 79.68,140.96C 79.09,140.96 78.6925,140.098 78.4875,138.373C 78.2825,136.648 78.04,135.77 77.76,135.74C 77.51,135.86 77.175,136.11 76.755,136.49C 73.195,139.83 69.385,141.5 65.325,141.5C 59.125,141.5 53.99,139.075 49.92,134.225C 46.08,129.685 44.16,124.265 44.16,117.965C 44.16,110.695 46.17,104.84 50.19,100.4C 54.37,95.8001 60.1,93.5001 67.38,93.5001C 72.27,93.5001 76.255,95.3351 79.335,99.0051C 79.465,99.1751 79.58,99.2601 79.68,99.2601C 79.92,99.2601 80.1925,98.3001 80.4975,96.3801C 80.8025,94.4601 81.17,93.5001 81.6,93.5001C 82.87,93.5001 85.295,93.8651 88.875,94.5951C 92.275,95.2951 94.71,95.8901 96.18,96.3801C 96.7,96.5701 96.96,96.8251 96.96,97.1451C 96.96,97.2751 96.905,97.61 96.795,98.1501C 95.625,103.95 95.04,110.08 95.04,116.54 Z M 78.72,117.47C 78.72,114.71 77.83,112.425 76.05,110.615C 74.27,108.805 71.95,107.9 69.09,107.9C 66.23,107.9 63.9,108.795 62.1,110.585C 60.3,112.375 59.44,114.67 59.52,117.47C 59.44,120.11 60.35,122.375 62.25,124.265C 64.15,126.155 66.43,127.1 69.09,127.1C 71.92,127.1 74.2325,126.195 76.0275,124.385C 77.8225,122.575 78.72,120.27 78.72,117.47 Z "/>
		<path fill="#000000" fill-opacity="1" stroke-linejoin="round" d="M 118.08,83.4201C 118.08,88.86 115.065,91.5801 109.035,91.5801C 106.445,91.5801 104.305,90.8901 102.615,89.5101C 100.765,88.0101 99.84,85.98 99.84,83.4201C 99.84,80.98 100.795,78.98 102.705,77.4201C 104.455,75.98 106.565,75.2601 109.035,75.2601C 111.435,75.2601 113.51,75.9951 115.26,77.4651C 117.14,79.0251 118.08,81.0101 118.08,83.4201 Z M 117.12,118.355C 117.12,120.685 117.28,124.145 117.6,128.735C 117.92,133.325 118.08,136.765 118.08,139.055C 118.08,139.725 117.66,140.125 116.82,140.255C 115.67,140.445 113.09,140.54 109.08,140.54C 105.04,140.54 102.45,140.445 101.31,140.255C 100.57,140.125 100.115,139.92 99.945,139.64C 99.875,139.51 99.84,139.03 99.84,138.2C 99.84,136.01 100,132.713 100.32,128.308C 100.64,123.903 100.8,120.585 100.8,118.355C 100.8,109.325 100.505,102.14 99.915,96.8001C 99.865,96.2901 99.84,95.9551 99.84,95.7951C 99.84,95.1751 100.255,94.8651 101.085,94.8651C 101.935,94.8651 103.242,94.9576 105.007,95.1426C 106.772,95.3276 108.1,95.4201 108.99,95.4201C 109.87,95.4201 111.2,95.3426 112.98,95.1876C 114.76,95.0326 116.09,94.9551 116.97,94.9551C 117.71,94.9551 118.08,95.2701 118.08,95.9001C 118.08,96.0301 118.055,96.3301 118.005,96.8001C 117.415,103 117.12,110.185 117.12,118.355 Z "/>
		<path fill="#000000" fill-opacity="1" stroke-linejoin="round" d="M 170.01,138.89C 170.01,139.74 169.577,140.228 168.712,140.353C 167.847,140.478 165.59,140.54 161.94,140.54C 158.05,140.54 155.64,140.445 154.71,140.255C 153.78,140.065 153.315,139.42 153.315,138.32C 153.315,136.84 153.362,134.6 153.457,131.6C 153.552,128.6 153.6,126.345 153.6,124.835C 153.6,123.665 153.567,121.923 153.502,119.608C 153.437,117.293 153.405,115.55 153.405,114.38C 153.405,110.06 151.43,107.9 147.48,107.9C 146.18,107.9 144.67,108.435 142.95,109.505C 141.09,110.705 140.16,111.89 140.16,113.06L 140.16,138.605C 140.16,139.645 139.685,140.225 138.735,140.345C 137.665,140.475 135.475,140.54 132.165,140.54C 128.575,140.54 126.245,140.445 125.175,140.255C 124.215,140.095 123.735,139.58 123.735,138.71C 123.735,136.26 123.752,132.57 123.787,127.64C 123.822,122.71 123.84,119.005 123.84,116.525C 123.84,108.715 123.23,102.58 122.01,98.1201C 121.95,97.8401 121.92,97.605 121.92,97.4151C 121.92,96.9151 122.145,96.5701 122.595,96.3801C 124.485,96.1301 127.01,95.73 130.17,95.1801C 134.95,94.0601 137.64,93.5001 138.24,93.5001C 138.65,93.5001 138.97,94.6201 139.2,96.86C 139.43,99.1001 139.75,100.22 140.16,100.22C 139.82,100.22 141.537,99.1001 145.312,96.86C 149.087,94.6201 152.395,93.5001 155.235,93.5001C 159.285,93.5001 162.625,94.4451 165.255,96.3351C 168.365,98.5151 169.92,101.54 169.92,105.41L 169.92,120.5C 169.92,122.55 169.935,125.615 169.965,129.695C 169.995,133.775 170.01,136.84 170.01,138.89 Z "/>
		<path fill="#000000" fill-opacity="1" stroke-linejoin="round" d="M 190.08,82.8651C 190.08,88.1251 189.105,93.8501 187.155,100.04C 186.975,100.61 186.67,100.925 186.24,100.985C 185.24,101.115 183.885,101.18 182.175,101.18C 180.975,101.18 179.77,101.115 178.56,100.985C 177.5,100.795 176.55,97.8451 175.71,92.1351C 175.05,87.605 174.72,84.0401 174.72,81.4401L 174.72,75.5901C 174.72,74.8601 174.91,74.4301 175.29,74.3001C 175.83,74.1101 178.095,74.0151 182.085,74.0151C 186.405,74.0151 188.785,74.1101 189.225,74.3001C 189.795,74.5501 190.08,77.4051 190.08,82.8651 Z "/>
		<path fill="#000000" fill-opacity="1" stroke-linejoin="round" d="M 226.56,127.055C 226.56,127.985 226.443,129.395 226.208,131.285C 225.973,133.175 225.855,134.56 225.855,135.44C 225.855,136.32 225.76,136.885 225.57,137.135C 225.38,137.385 224.86,137.74 224.01,138.2C 219.94,140.4 215.43,141.5 210.48,141.5C 201.6,141.5 197.04,137.975 196.8,130.925C 196.8,128.815 196.8,125.648 196.8,121.423C 196.8,117.198 196.8,114.03 196.8,111.92C 196.8,110.52 196.06,109.82 194.58,109.82C 194.46,109.82 194.27,109.82 194.01,109.82C 193.75,109.86 193.56,109.88 193.44,109.88C 192.33,109.88 191.775,109.435 191.775,108.545C 191.775,108.025 191.813,107.225 191.888,106.145C 191.963,105.065 192,104.265 192,103.745C 192,103.055 191.963,102.008 191.888,100.603C 191.813,99.1976 191.775,98.1501 191.775,97.4601C 191.775,96.8101 192.775,96.4501 194.775,96.3801C 195.905,96.3501 196.515,96.0301 196.605,95.4201C 196.795,94.2001 196.86,92.2751 196.8,89.6451C 196.67,85.5051 196.605,83.5301 196.605,83.72C 196.605,80.0001 196.96,78.1401 197.67,78.1401C 198.53,78.1401 199.76,78.3901 201.36,78.8901C 203.18,79.4301 204.445,79.7451 205.155,79.8351C 206.785,80.1251 209.25,80.5201 212.55,81.0201C 213.34,81.0801 213.735,81.345 213.735,81.8151C 213.735,83.0551 213.633,84.9326 213.428,87.4476C 213.223,89.9626 213.12,91.86 213.12,93.1401C 213.12,94.6601 213.56,95.4201 214.44,95.4201C 215.5,95.4201 217.103,95.3726 219.248,95.2776C 221.393,95.1826 223.01,95.1351 224.1,95.1351C 224.77,95.1351 225.105,95.3701 225.105,95.8401C 225.105,96.5701 225.028,97.6576 224.873,99.1026C 224.718,100.548 224.64,101.635 224.64,102.365C 224.64,103.115 224.655,104.215 224.685,105.665C 224.715,107.115 224.73,108.215 224.73,108.965C 224.73,109.635 224.285,109.97 223.395,109.97C 222.785,109.97 221.763,109.945 220.328,109.895C 218.893,109.845 217.865,109.82 217.245,109.82L 213.81,109.82C 213.35,109.82 213.12,110.555 213.12,112.025C 213.12,112.825 213.12,114.01 213.12,115.58C 213.15,117.18 213.165,118.365 213.165,119.135C 213.165,121.945 213.465,123.88 214.065,124.94C 214.915,126.38 216.59,127.1 219.09,127.1C 219.87,127.1 220.995,126.923 222.465,126.568C 223.935,126.213 224.97,126.035 225.57,126.035C 226.23,126.035 226.56,126.375 226.56,127.055 Z "/>
		<path fill="#000000" fill-opacity="1" stroke-linejoin="round" d="M 277.545,109.01C 277.545,109.73 277.115,110.09 276.255,110.09C 272.695,110.09 269.89,110 267.84,109.82C 267.93,112.26 268.015,115.66 268.095,120.02C 268.125,121.88 268.26,125.105 268.5,129.695C 268.7,133.835 268.8,137.06 268.8,139.37C 268.8,140.05 268.375,140.44 267.525,140.54C 266.495,140.67 263.91,140.735 259.77,140.735C 256.34,140.735 254.108,140.638 253.073,140.443C 252.038,140.248 251.52,139.575 251.52,138.425L 251.52,111.245C 251.52,110.295 250.895,109.82 249.645,109.82C 249.425,109.82 249.073,109.838 248.588,109.873C 248.103,109.908 247.755,109.925 247.545,109.925C 246.665,109.925 246.21,109.68 246.18,109.19C 245.9,106.55 245.76,102.715 245.76,97.6851C 245.76,96.5651 246.33,95.8851 247.47,95.6451C 248.48,95.5551 249.51,95.48 250.56,95.4201C 250.41,93.0001 250.335,91.1151 250.335,89.7651C 250.335,84.5651 251.49,80.7901 253.8,78.4401C 257.93,73.7601 264.785,71.4201 274.365,71.4201C 275.005,71.4201 275.39,71.6151 275.52,72.0051C 275.75,73.4551 276.075,75.6001 276.495,78.4401C 276.525,78.6901 276.71,79.5901 277.05,81.1401C 277.31,82.3401 277.44,83.2601 277.44,83.9001C 277.44,84.8901 276.19,85.5301 273.69,85.8201C 270.8,86.0701 269.025,86.48 268.365,87.0501C 267.215,88.0401 266.64,89.98 266.64,92.8701C 266.64,93.7701 266.72,94.6201 266.88,95.4201C 267.84,95.4201 269.328,95.3876 271.342,95.3226C 273.358,95.2576 274.875,95.2251 275.895,95.2251C 276.925,95.2251 277.44,95.5601 277.44,96.23C 277.44,97.6501 277.458,99.7801 277.493,102.62C 277.527,105.46 277.545,107.59 277.545,109.01 Z "/>
		<path fill="#000000" fill-opacity="1" stroke-linejoin="round" d="M 324.48,117.425C 324.48,124.575 322.315,130.375 317.985,134.825C 313.655,139.275 307.965,141.5 300.915,141.5C 294.085,141.5 288.465,139.305 284.055,134.915C 279.645,130.525 277.44,124.885 277.44,117.995C 277.44,110.725 279.553,104.825 283.778,100.295C 288.003,95.7651 293.715,93.5001 300.915,93.5001C 307.935,93.5001 313.618,95.7176 317.963,100.153C 322.308,104.588 324.48,110.345 324.48,117.425 Z M 309.12,117.47C 309.12,114.95 308.368,112.725 306.863,110.795C 305.358,108.865 303.405,107.9 301.005,107.9C 298.575,107.9 296.58,108.89 295.02,110.87C 293.54,112.72 292.8,114.92 292.8,117.47C 292.8,120.06 293.54,122.28 295.02,124.13C 296.58,126.11 298.575,127.1 301.005,127.1C 303.405,127.1 305.39,126.11 306.96,124.13C 308.4,122.28 309.12,120.06 309.12,117.47 Z "/>
		<path fill="#000000" fill-opacity="1" stroke-linejoin="round" d="M 376.32,97.355C 376.32,99.6951 376.16,103.198 375.84,107.863C 375.52,112.528 375.36,116.025 375.36,118.355C 375.36,120.625 375.52,124.03 375.84,128.57C 376.16,133.11 376.32,136.5 376.32,138.74C 376.32,139.59 375.965,140.125 375.255,140.345C 374.185,140.665 371.91,140.825 368.43,140.825C 365.35,140.825 363.2,140.73 361.98,140.54C 361.44,140.43 361.1,140 360.96,139.25C 360.67,138.18 360.38,137.11 360.09,136.04C 359.61,134.4 358.94,133.58 358.08,133.58C 358.52,133.58 356.973,134.74 353.438,137.06C 349.902,139.38 346.69,140.54 343.8,140.54C 335.66,140.54 330.84,136.805 329.34,129.335C 328.66,125.865 328.32,120.83 328.32,114.23C 328.32,107.1 328.64,101.47 329.28,97.3401C 329.64,96.0601 330.31,95.4201 331.29,95.4201C 332.8,95.4201 335.092,95.4351 338.167,95.4651C 341.242,95.4951 343.535,95.5101 345.045,95.5101C 346.055,95.5101 346.56,95.9051 346.56,96.6951C 346.56,96.9151 346.53,97.2351 346.47,97.6551C 345.89,101.795 345.6,105.995 345.6,110.255C 345.6,115.555 345.77,119.175 346.11,121.115C 346.66,124.465 348.675,126.14 352.155,126.14C 353.515,126.14 354.987,125.62 356.572,124.58C 358.157,123.54 358.98,122.37 359.04,121.07C 359.1,119.92 359.13,112.13 359.13,97.7001C 359.13,96.6801 359.21,96.0751 359.37,95.8851C 359.55,95.5751 360.1,95.4201 361.02,95.4201C 362.53,95.4201 364.797,95.4351 367.822,95.4651C 370.848,95.4951 373.11,95.5101 374.61,95.5101C 375.53,95.5101 376.07,95.7501 376.23,96.23C 376.29,96.48 376.32,96.855 376.32,97.355 Z "/>
		<path fill="#000000" fill-opacity="1" stroke-linejoin="round" d="M 427.29,138.89C 427.29,139.74 426.857,140.228 425.992,140.353C 425.127,140.478 422.87,140.54 419.22,140.54C 415.33,140.54 412.92,140.445 411.99,140.255C 411.06,140.065 410.595,139.42 410.595,138.32C 410.595,136.84 410.642,134.6 410.737,131.6C 410.832,128.6 410.88,126.345 410.88,124.835C 410.88,123.665 410.847,121.923 410.782,119.608C 410.717,117.293 410.685,115.55 410.685,114.38C 410.685,110.06 408.71,107.9 404.76,107.9C 403.46,107.9 401.95,108.435 400.23,109.505C 398.37,110.705 397.44,111.89 397.44,113.06L 397.44,138.605C 397.44,139.645 396.965,140.225 396.015,140.345C 394.945,140.475 392.755,140.54 389.445,140.54C 385.855,140.54 383.525,140.445 382.455,140.255C 381.495,140.095 381.015,139.58 381.015,138.71C 381.015,136.26 381.032,132.57 381.067,127.64C 381.102,122.71 381.12,119.005 381.12,116.525C 381.12,108.715 380.51,102.58 379.29,98.1201C 379.23,97.8401 379.2,97.605 379.2,97.4151C 379.2,96.9151 379.425,96.5701 379.875,96.3801C 381.765,96.1301 384.29,95.73 387.45,95.1801C 392.23,94.0601 394.92,93.5001 395.52,93.5001C 395.93,93.5001 396.25,94.6201 396.48,96.86C 396.71,99.1001 397.03,100.22 397.44,100.22C 397.1,100.22 398.817,99.1001 402.592,96.86C 406.367,94.6201 409.675,93.5001 412.515,93.5001C 416.565,93.5001 419.905,94.4451 422.535,96.3351C 425.645,98.5151 427.2,101.54 427.2,105.41L 427.2,120.5C 427.2,122.55 427.215,125.615 427.245,129.695C 427.275,133.775 427.29,136.84 427.29,138.89 Z "/>
		<path fill="#000000" fill-opacity="1" stroke-linejoin="round" d="M 481.92,74.4951C 481.92,73.8151 481.84,74.8351 481.68,77.5551C 481.47,80.9851 481.31,85.3701 481.2,90.7101C 481.04,96.7601 480.96,103.645 480.96,111.365C 480.96,124.115 481.28,133.19 481.92,138.59C 481.98,139.18 482.01,139.55 482.01,139.7C 482.01,140.04 481.77,140.245 481.29,140.315C 480.14,140.465 475.9,140.54 468.57,140.54C 466.85,140.54 465.86,140.235 465.6,139.625C 465.6,138.525 465.6,137.42 465.6,136.31C 465.57,136.08 465.445,135.85 465.225,135.62C 465.035,135.72 464.8,135.92 464.52,136.22C 461.11,139.74 456.855,141.5 451.755,141.5C 445.115,141.5 439.795,139.16 435.795,134.48C 431.985,130.03 430.08,124.41 430.08,117.62C 430.08,110.73 431.945,105.06 435.675,100.61C 439.635,95.8701 444.97,93.5001 451.68,93.5001C 456.34,93.5001 460.025,94.9051 462.735,97.7151C 463.175,98.1851 463.49,98.4201 463.68,98.4201C 463.96,98.4201 464.1,98.0151 464.1,97.2051C 464.1,94.8151 464.038,91.2451 463.913,86.4951C 463.788,81.7451 463.725,78.1901 463.725,75.8301C 463.725,74.9301 463.975,74.4201 464.475,74.3001C 466.455,74.2501 469.185,74.1451 472.665,73.9851C 478.865,73.5551 481.61,73.3401 480.9,73.3401C 481.58,73.3401 481.92,73.7251 481.92,74.4951 Z M 464.64,117.425C 464.64,114.895 463.777,112.675 462.052,110.765C 460.328,108.855 458.24,107.9 455.79,107.9C 453.21,107.9 451.16,108.855 449.64,110.765C 448.12,112.675 447.36,114.96 447.36,117.62C 447.36,120.22 448.13,122.42 449.67,124.22C 451.24,126.14 453.28,127.1 455.79,127.1C 458.3,127.1 460.402,126.138 462.098,124.213C 463.792,122.288 464.64,120.025 464.64,117.425 Z "/>
	</g>
</svg>
